# xmcd
#
# Track frame offsets: 
#        150
#        11847
#        28217
#        38600
#        58062
#        73180
#        86630
#        101082
#        113187
#        127020
#        140285
#        151390
#        163880
#        176612
#        189267
#
# Disc length: 2706 seconds
#
# Revision: 0
# Processed by: cddbd v1.5.2PL0 Copyright (c) Steve Scherf et al.
# Submitted via: ExactAudioCopy v0.95b4
#
DISCID=d20a900f
DTITLE=Ferry, Bryan - As Time Goes By
DYEAR=1999
DGENRE=Pop
TTITLE0=As time goes by
TTITLE1=The way you look tonight
TTITLE2=Easy living
TTITLE3=I'm in the mood for love
TTITLE4=Where or when
TTITLE5=When somebody thinks ...
TTITLE6=Sweet and lovely
TTITLE7=Miss Otis regrets
TTITLE8=Time on my hands
TTITLE9=Lover come back to me
TTITLE10=Falling in love again
TTITLE11=Love me or leave me
TTITLE12=You do something to me
TTITLE13=Just one of those things
TTITLE14=September song
EXTD=
EXTT0=
EXTT1=
EXTT2=
EXTT3=
EXTT4=
EXTT5=
EXTT6=
EXTT7=
EXTT8=
EXTT9=
EXTT10=
EXTT11=
EXTT12=
EXTT13=
EXTT14=
PLAYORDER=
